<mxfile host="app.diagrams.net" modified="2023-08-22T01:08:29.394Z" agent="Mozilla/5.0 (Windows NT 10.0; Win64; x64) AppleWebKit/537.36 (KHTML, like Gecko) Chrome/116.0.0.0 Safari/537.36" etag="YZQe4greOOC4z3Gnyb3j" version="21.6.8" type="device">
  <diagram name="Página-1" id="UZiwT6zpwkkWJVwgKjAo">
    <mxGraphModel dx="1434" dy="758" grid="1" gridSize="10" guides="1" tooltips="1" connect="1" arrows="1" fold="1" page="1" pageScale="1" pageWidth="1200" pageHeight="1600" math="0" shadow="0">
      <root>
        <mxCell id="0" />
        <mxCell id="1" parent="0" />
        <mxCell id="Y-l_Htzlkt7J3EoG1v91-1" value="" style="rounded=1;whiteSpace=wrap;html=1;" vertex="1" parent="1">
          <mxGeometry x="451" y="335" width="200" height="90" as="geometry" />
        </mxCell>
        <mxCell id="Y-l_Htzlkt7J3EoG1v91-4" value="Relatório" style="text;strokeColor=none;fillColor=none;align=center;verticalAlign=middle;spacingLeft=4;spacingRight=4;overflow=hidden;points=[[0,0.5],[1,0.5]];portConstraint=eastwest;rotatable=0;whiteSpace=wrap;html=1;fontSize=20;" vertex="1" parent="1">
          <mxGeometry x="476" y="345" width="150" height="70" as="geometry" />
        </mxCell>
        <mxCell id="Y-l_Htzlkt7J3EoG1v91-5" value="" style="endArrow=classic;html=1;rounded=0;" edge="1" parent="1">
          <mxGeometry width="50" height="50" relative="1" as="geometry">
            <mxPoint x="662" y="379.5" as="sourcePoint" />
            <mxPoint x="722" y="379.5" as="targetPoint" />
          </mxGeometry>
        </mxCell>
        <mxCell id="Y-l_Htzlkt7J3EoG1v91-6" value="" style="rounded=1;whiteSpace=wrap;html=1;" vertex="1" parent="1">
          <mxGeometry x="180" y="335" width="200" height="90" as="geometry" />
        </mxCell>
        <mxCell id="Y-l_Htzlkt7J3EoG1v91-7" value="Carteira de investimentos" style="text;strokeColor=none;fillColor=none;align=center;verticalAlign=middle;spacingLeft=4;spacingRight=4;overflow=hidden;points=[[0,0.5],[1,0.5]];portConstraint=eastwest;rotatable=0;whiteSpace=wrap;html=1;fontSize=20;" vertex="1" parent="1">
          <mxGeometry x="205" y="345" width="150" height="70" as="geometry" />
        </mxCell>
        <mxCell id="Y-l_Htzlkt7J3EoG1v91-9" value="" style="swimlane;startSize=0;" vertex="1" parent="1">
          <mxGeometry x="442" y="295" width="220" height="140" as="geometry" />
        </mxCell>
        <mxCell id="Y-l_Htzlkt7J3EoG1v91-8" value="" style="outlineConnect=0;dashed=0;verticalLabelPosition=bottom;verticalAlign=top;align=center;html=1;shape=mxgraph.aws3.s3;fillColor=#E05243;gradientColor=none;" vertex="1" parent="1">
          <mxGeometry x="535.55" y="275" width="32.9" height="40" as="geometry" />
        </mxCell>
        <mxCell id="Y-l_Htzlkt7J3EoG1v91-12" value="" style="rounded=1;whiteSpace=wrap;html=1;" vertex="1" parent="1">
          <mxGeometry x="731" y="335" width="200" height="90" as="geometry" />
        </mxCell>
        <mxCell id="Y-l_Htzlkt7J3EoG1v91-13" value="Envio&lt;br&gt;ALM" style="text;strokeColor=none;fillColor=none;align=center;verticalAlign=middle;spacingLeft=4;spacingRight=4;overflow=hidden;points=[[0,0.5],[1,0.5]];portConstraint=eastwest;rotatable=0;whiteSpace=wrap;html=1;fontSize=20;" vertex="1" parent="1">
          <mxGeometry x="756" y="345" width="150" height="70" as="geometry" />
        </mxCell>
        <mxCell id="Y-l_Htzlkt7J3EoG1v91-14" value="" style="swimlane;startSize=0;" vertex="1" parent="1">
          <mxGeometry x="722" y="295" width="220" height="140" as="geometry" />
        </mxCell>
        <mxCell id="Y-l_Htzlkt7J3EoG1v91-16" value="" style="outlineConnect=0;dashed=0;verticalLabelPosition=bottom;verticalAlign=top;align=center;html=1;shape=mxgraph.aws3.sns;fillColor=#D9A741;gradientColor=none;" vertex="1" parent="1">
          <mxGeometry x="811" y="275" width="40" height="40" as="geometry" />
        </mxCell>
        <mxCell id="Y-l_Htzlkt7J3EoG1v91-19" value="" style="endArrow=classic;html=1;rounded=0;" edge="1" parent="1">
          <mxGeometry relative="1" as="geometry">
            <mxPoint x="942" y="379.5" as="sourcePoint" />
            <mxPoint x="1042" y="379.5" as="targetPoint" />
          </mxGeometry>
        </mxCell>
        <mxCell id="Y-l_Htzlkt7J3EoG1v91-20" value="" style="shape=message;html=1;outlineConnect=0;" vertex="1" parent="Y-l_Htzlkt7J3EoG1v91-19">
          <mxGeometry width="20" height="14" relative="1" as="geometry">
            <mxPoint x="-10" y="-7" as="offset" />
          </mxGeometry>
        </mxCell>
        <mxCell id="Y-l_Htzlkt7J3EoG1v91-22" value="" style="rounded=1;whiteSpace=wrap;html=1;" vertex="1" parent="1">
          <mxGeometry x="1042" y="315" width="120" height="120" as="geometry" />
        </mxCell>
        <mxCell id="Y-l_Htzlkt7J3EoG1v91-23" value="" style="sketch=0;outlineConnect=0;fontColor=#232F3E;gradientColor=none;fillColor=#232F3D;strokeColor=none;dashed=0;verticalLabelPosition=bottom;verticalAlign=top;align=center;html=1;fontSize=12;fontStyle=0;aspect=fixed;pointerEvents=1;shape=mxgraph.aws4.users;" vertex="1" parent="1">
          <mxGeometry x="1077" y="350" width="50" height="50" as="geometry" />
        </mxCell>
        <mxCell id="Y-l_Htzlkt7J3EoG1v91-27" value="" style="rounded=1;whiteSpace=wrap;html=1;" vertex="1" parent="1">
          <mxGeometry x="179" y="561" width="200" height="90" as="geometry" />
        </mxCell>
        <mxCell id="Y-l_Htzlkt7J3EoG1v91-28" value="Relatório" style="text;strokeColor=none;fillColor=none;align=center;verticalAlign=middle;spacingLeft=4;spacingRight=4;overflow=hidden;points=[[0,0.5],[1,0.5]];portConstraint=eastwest;rotatable=0;whiteSpace=wrap;html=1;fontSize=20;" vertex="1" parent="1">
          <mxGeometry x="204" y="571" width="150" height="70" as="geometry" />
        </mxCell>
        <mxCell id="Y-l_Htzlkt7J3EoG1v91-29" value="" style="endArrow=classic;html=1;rounded=0;" edge="1" parent="1">
          <mxGeometry width="50" height="50" relative="1" as="geometry">
            <mxPoint x="380" y="374.5" as="sourcePoint" />
            <mxPoint x="440" y="374.5" as="targetPoint" />
          </mxGeometry>
        </mxCell>
        <mxCell id="Y-l_Htzlkt7J3EoG1v91-30" value="" style="swimlane;startSize=0;" vertex="1" parent="1">
          <mxGeometry x="170" y="521" width="220" height="140" as="geometry" />
        </mxCell>
        <mxCell id="Y-l_Htzlkt7J3EoG1v91-32" value="" style="outlineConnect=0;dashed=0;verticalLabelPosition=bottom;verticalAlign=top;align=center;html=1;shape=mxgraph.aws3.lambda_function;fillColor=#F58534;gradientColor=none;" vertex="1" parent="Y-l_Htzlkt7J3EoG1v91-30">
          <mxGeometry x="90.84" y="-20" width="38.33" height="40" as="geometry" />
        </mxCell>
        <mxCell id="Y-l_Htzlkt7J3EoG1v91-33" value="" style="endArrow=none;dashed=1;html=1;dashPattern=1 3;strokeWidth=2;rounded=0;" edge="1" parent="1">
          <mxGeometry width="50" height="50" relative="1" as="geometry">
            <mxPoint x="280" y="500" as="sourcePoint" />
            <mxPoint x="278.5" y="425" as="targetPoint" />
          </mxGeometry>
        </mxCell>
        <mxCell id="Y-l_Htzlkt7J3EoG1v91-35" value="" style="endArrow=none;dashed=1;html=1;dashPattern=1 3;strokeWidth=2;rounded=0;" edge="1" parent="1">
          <mxGeometry width="50" height="50" relative="1" as="geometry">
            <mxPoint x="390" y="600" as="sourcePoint" />
            <mxPoint x="560" y="600" as="targetPoint" />
          </mxGeometry>
        </mxCell>
        <mxCell id="Y-l_Htzlkt7J3EoG1v91-36" value="" style="outlineConnect=0;dashed=0;verticalLabelPosition=bottom;verticalAlign=top;align=center;html=1;shape=mxgraph.aws3.android;fillColor=#FFD44F;gradientColor=none;" vertex="1" parent="1">
          <mxGeometry x="230" y="160" width="73.5" height="84" as="geometry" />
        </mxCell>
      </root>
    </mxGraphModel>
  </diagram>
</mxfile>
